<?xml version="1.0" standalone="no"?>
<!DOCTYPE svg PUBLIC "-//W3C//DTD SVG 20010904//EN"
 "http://www.w3.org/TR/2001/REC-SVG-20010904/DTD/svg10.dtd">
<svg version="1.0" xmlns="http://www.w3.org/2000/svg"
 width="700.000000pt" height="700.000000pt" viewBox="0 0 700.000000 700.000000"
 preserveAspectRatio="xMidYMid meet">
<metadata>
Created by potrace 1.14, written by Peter Selinger 2001-2017
</metadata>
<g transform="translate(0.000000,700.000000) scale(0.100000,-0.100000)"
fill="#000000" stroke="none">
<path d="M1651 6699 c-47 -9 -102 -45 -127 -85 -25 -37 -29 -105 -10 -142 25
-49 67 -65 181 -70 86 -3 106 -8 140 -29 146 -94 335 -294 402 -427 14 -28 30
-54 35 -57 5 -3 -22 -28 -59 -56 -85 -63 -238 -214 -322 -317 -197 -241 -358
-556 -431 -845 -56 -224 -68 -529 -30 -751 16 -90 18 -99 45 -194 37 -126 148
-357 199 -409 6 -6 22 -26 34 -44 19 -27 20 -31 5 -27 -37 10 -293 -103 -408
-179 -104 -69 -264 -216 -345 -316 -19 -24 -40 -49 -47 -56 -24 -25 -122 -182
-156 -250 -44 -89 -84 -204 -102 -297 -17 -89 -13 -260 9 -338 52 -184 190
-329 381 -399 132 -48 225 -60 440 -56 105 2 199 5 210 8 11 3 47 8 80 11 33
4 67 9 75 11 8 2 31 6 51 9 51 8 261 53 279 60 10 4 29 -12 60 -51 70 -91 121
-143 133 -136 5 3 7 1 4 -4 -8 -12 103 -115 249 -233 90 -72 305 -194 432
-244 97 -39 248 -86 255 -80 2 2 9 -19 15 -48 16 -66 94 -252 132 -312 37 -58
67 -62 104 -13 30 39 76 139 100 217 10 30 21 64 26 75 5 11 11 33 12 50 3 25
8 31 43 38 154 33 372 131 540 242 130 86 387 296 383 313 -1 4 20 30 48 57
78 80 113 122 106 131 -4 4 0 3 8 -2 8 -4 20 -9 25 -11 6 -1 19 -4 30 -7 113
-28 251 -56 300 -62 33 -3 69 -8 80 -11 11 -3 112 -7 225 -8 232 -4 346 9 470
54 373 137 526 546 361 961 -85 212 -207 377 -410 553 -87 76 -305 199 -451
255 -83 31 -157 51 -164 44 -3 -3 -6 0 -6 6 0 6 13 26 28 44 123 142 243 398
268 568 3 19 7 40 9 47 20 59 28 429 12 548 -69 513 -335 1000 -732 1340 -39
33 -83 69 -98 80 l-28 21 45 76 c86 146 181 255 317 363 97 78 108 82 221 88
143 8 185 30 192 105 4 40 -20 111 -46 139 -46 50 -126 67 -191 39 -68 -29
-107 -86 -109 -164 -2 -48 -3 -49 -77 -103 -98 -71 -256 -227 -313 -309 -59
-85 -110 -175 -102 -183 3 -3 -38 23 -92 59 -160 106 -367 200 -559 256 -201
58 -286 71 -495 74 -107 1 -217 -1 -245 -6 -27 -5 -65 -11 -82 -14 -18 -3 -48
-8 -65 -12 -119 -20 -385 -112 -519 -180 -78 -39 -246 -139 -271 -162 -14 -11
-18 -12 -18 -2 0 21 -88 159 -144 225 -88 104 -235 240 -308 284 -21 12 -38
28 -39 34 -3 92 -19 135 -61 174 -38 36 -87 51 -137 42z m1065 -2339 c15 -22
25 -42 23 -44 -2 -2 -16 16 -31 40 -34 55 -28 58 8 4z m-295 -77 c-12 -20 -14
-14 -5 12 4 9 9 14 11 11 3 -2 0 -13 -6 -23z m1836 -85 c-3 -8 -6 -5 -6 6 -1
11 2 17 5 13 3 -3 4 -12 1 -19z m333 -281 c0 -2 -12 -14 -27 -28 l-28 -24 24
28 c23 25 31 32 31 24z m-1893 -32 c-15 -14 -33 -25 -39 -25 -6 0 4 11 23 24
44 32 51 32 16 1z m1134 -132 c12 -16 12 -17 -1 -7 -8 6 -22 14 -30 17 -13 5
-12 6 1 6 9 1 23 -7 30 -16z m-102 -152 c-6 -17 -16 -35 -24 -41 -7 -6 -4 7 7
30 24 47 31 52 17 11z m-399 -45 c0 -6 -7 -1 -15 10 -8 10 -15 23 -15 28 0 6
7 1 15 -10 8 -10 15 -23 15 -28z m1630 -756 c-8 -5 -19 -10 -25 -10 -5 0 -3 5
5 10 8 5 20 10 25 10 6 0 3 -5 -5 -10z m-1205 -60 c-3 -5 -12 -10 -18 -10 -7
0 -6 4 3 10 19 12 23 12 15 0z m862 -222 c-3 -7 -5 -2 -5 12 0 14 2 19 5 13 2
-7 2 -19 0 -25z m-2160 -380 c-3 -8 -6 -5 -6 6 -1 11 2 17 5 13 3 -3 4 -12 1
-19z m74 -116 c-7 -2 -18 1 -23 6 -8 8 -4 9 13 5 13 -4 18 -8 10 -11z m2444 8
c-3 -5 -12 -10 -18 -10 -7 0 -6 4 3 10 19 12 23 12 15 0z m-2365 -10 c0 -5 -8
-10 -17 -10 -15 0 -16 2 -3 10 19 12 20 12 20 0z m795 -1338 c-3 -3 -11 0 -18
7 -9 10 -8 11 6 5 10 -3 15 -9 12 -12z m48 1 c-7 -2 -19 -2 -25 0 -7 3 -2 5
12 5 14 0 19 -2 13 -5z m150 0 c-7 -2 -21 -2 -30 0 -10 3 -4 5 12 5 17 0 24
-2 18 -5z"/>
</g>
</svg>
