<svg id="svg" version="1.1" xmlns="http://www.w3.org/2000/svg" xmlns:xlink="http://www.w3.org/1999/xlink" width="400" height="400" viewBox="0, 0, 400,400"><g id="svgg"><path id="path0" d="M93.186 17.359 C 88.650 18.825,85.630 22.709,85.630 27.076 C 85.630 32.051,90.219 34.682,98.239 34.308 L 102.441 34.112 105.249 36.046 C 115.458 43.079,124.115 52.557,128.486 61.486 C 129.787 64.144,129.701 64.126,132.150 62.297 L 134.074 60.861 132.547 57.962 C 127.810 48.970,117.400 37.850,107.676 31.394 L 105.572 29.997 105.563 27.217 C 105.543 20.520,99.153 15.430,93.186 17.359 M303.125 17.465 C 298.693 18.808,295.877 22.578,295.817 27.250 L 295.781 30.062 292.661 32.296 C 283.829 38.618,276.357 46.197,271.689 53.568 C 269.801 56.549,267.329 61.017,267.501 61.137 C 267.580 61.192,268.348 61.770,269.208 62.420 C 270.068 63.071,270.987 63.727,271.248 63.879 C 271.566 64.064,272.199 63.207,273.150 61.306 C 277.905 51.795,285.931 43.122,296.949 35.588 L 298.884 34.265 304.183 34.239 C 312.736 34.197,315.769 32.343,315.699 27.198 C 315.602 20.157,309.592 15.505,303.125 17.465 M143.996 147.447 C 135.261 151.770,134.054 172.707,142.209 178.439 C 147.385 182.077,155.410 179.229,157.349 173.067 C 161.970 158.375,153.757 142.615,143.996 147.447 M250.774 147.193 C 241.022 151.437,240.201 174.839,249.655 179.134 C 256.143 182.082,262.900 178.180,264.286 170.685 C 267.001 155.998,259.702 143.309,250.774 147.193 M182.856 185.270 C 182.011 186.205,181.986 190.573,182.809 193.730 C 187.543 211.908,213.994 211.620,218.755 193.339 C 219.480 190.557,219.535 186.896,218.866 186.020 C 217.219 183.863,214.272 185.500,214.272 188.572 C 214.272 196.117,208.302 201.955,200.587 201.955 C 192.706 201.955,187.315 196.364,187.297 188.172 C 187.290 185.003,184.656 183.282,182.856 185.270 M142.534 230.839 C 141.444 232.267,139.595 236.784,139.583 238.043 C 139.568 239.732,139.073 239.726,134.485 237.985 C 132.023 237.052,128.376 235.528,126.378 234.600 C 124.285 233.628,122.616 233.064,122.439 233.270 C 119.655 236.499,118.084 238.422,118.084 238.601 C 118.084 239.318,131.654 248.676,135.939 250.915 L 138.024 252.004 138.026 256.109 C 138.032 266.682,140.176 279.764,142.460 283.162 C 145.724 288.017,177.200 278.985,189.443 269.679 L 192.180 267.599 193.524 268.512 C 197.147 270.972,202.512 271.188,207.067 269.057 L 209.715 267.817 211.114 268.928 C 222.067 277.623,254.961 288.054,258.543 283.969 C 261.042 281.119,262.928 271.515,263.405 259.211 L 263.656 252.733 273.568 246.157 C 279.019 242.541,283.478 239.473,283.476 239.341 C 283.474 239.209,282.322 237.738,280.917 236.072 L 278.363 233.044 276.475 234.001 C 273.967 235.272,268.279 237.622,265.006 238.739 L 262.369 239.640 262.137 238.588 C 260.675 231.949,258.922 229.521,255.589 229.521 C 245.148 229.521,223.751 236.946,213.192 244.232 L 209.572 246.731 208.050 245.724 C 203.922 242.993,197.949 242.926,193.788 245.564 L 191.996 246.700 188.259 244.166 C 177.696 237.005,159.041 230.350,147.569 229.651 L 143.624 229.410 142.534 230.839 M109.091 278.836 C 109.091 289.087,119.358 310.238,130.579 323.101 L 133.494 326.443 140.354 329.759 C 184.277 350.993,217.114 350.957,261.016 329.626 C 267.890 326.286,268.140 326.122,270.637 323.314 C 281.635 310.942,290.290 293.722,292.290 280.232 L 292.569 278.353 286.558 282.391 C 232.837 318.480,164.168 317.722,112.512 280.469 C 109.528 278.317,109.091 278.108,109.091 278.836 M189.638 360.213 C 189.638 363.431,196.800 380.145,199.119 382.340 C 202.303 385.354,206.448 378.896,210.955 363.898 C 212.211 359.717,212.485 359.993,207.787 360.701 C 202.270 361.533,195.797 361.375,190.714 360.286 C 190.122 360.159,189.638 360.126,189.638 360.213 " stroke="none" fill="#050504" fill-rule="evenodd"></path><path id="path1" d="M109.091 32.171 C 109.091 32.245,109.663 32.725,110.362 33.237 C 111.148 33.812,111.421 33.907,111.078 33.484 C 110.557 32.843,109.091 31.874,109.091 32.171 M95.406 214.751 C 78.309 221.266,71.561 225.483,60.582 236.509 C 35.073 262.129,29.056 294.072,46.500 311.268 C 58.335 322.935,78.207 325.765,109.286 320.210 C 116.561 318.910,123.837 317.274,124.684 316.747 C 125.109 316.482,124.848 315.883,123.457 313.924 C 104.410 287.112,103.337 255.505,120.783 235.198 C 122.108 233.655,122.623 232.791,122.295 232.657 C 117.842 230.833,107.811 223.535,102.019 217.905 C 99.742 215.692,97.806 213.892,97.717 213.906 C 97.629 213.920,96.588 214.300,95.406 214.751 M299.316 218.176 C 295.219 222.253,283.491 231.085,282.172 231.085 C 282.085 231.085,281.198 231.542,280.199 232.100 L 278.384 233.114 280.287 235.325 C 285.552 241.442,289.375 248.221,291.236 254.741 C 293.000 260.920,293.449 266.609,292.898 275.812 C 292.232 286.955,285.947 302.612,277.108 315.152 C 275.820 316.979,275.099 318.182,275.506 317.823 C 276.200 317.212,276.468 317.231,279.765 318.126 C 299.876 323.584,324.666 324.490,338.416 320.270 C 360.214 313.580,370.277 291.516,362.417 267.644 C 361.071 263.555,356.059 253.377,353.965 250.479 C 350.242 245.329,345.207 239.327,343.280 237.745 C 342.111 236.784,340.122 235.060,338.862 233.914 C 331.989 227.660,317.847 219.984,307.073 216.659 C 302.027 215.102,302.497 215.010,299.316 218.176 " stroke="none" fill="#b3dceb" fill-rule="evenodd"></path><path id="path2" d="M190.616 39.122 C 189.326 39.322,186.950 39.677,185.337 39.909 C 175.135 41.383,162.299 45.424,150.949 50.735 C 146.997 52.585,135.495 59.539,133.724 61.149 C 133.187 61.638,131.427 62.978,129.814 64.126 C 103.764 82.677,84.093 116.028,80.958 146.962 C 77.606 180.027,87.931 208.176,109.323 224.293 C 113.518 227.453,121.624 232.649,122.360 232.649 C 122.518 232.649,123.952 233.286,125.546 234.065 C 128.594 235.553,136.346 238.672,138.044 239.094 C 139.000 239.331,139.075 239.217,139.953 236.178 C 141.795 229.806,143.227 228.745,148.981 229.490 C 161.925 231.164,180.567 238.169,189.159 244.588 L 191.948 246.671 192.966 245.870 C 196.778 242.871,203.975 242.794,208.260 245.705 L 209.697 246.682 211.300 245.390 C 220.323 238.124,243.240 229.694,254.755 229.405 C 258.945 229.300,260.525 231.023,261.975 237.274 C 262.548 239.742,262.218 239.748,268.817 237.160 C 296.312 226.380,313.317 207.691,318.908 182.108 C 328.233 139.439,309.046 91.745,271.554 64.403 C 269.619 62.992,267.711 61.544,267.314 61.185 C 265.673 59.701,257.323 54.534,252.871 52.247 C 248.118 49.807,247.164 49.375,240.078 46.460 C 233.204 43.631,220.112 40.279,212.121 39.302 C 208.653 38.878,193.036 38.747,190.616 39.122 M152.097 147.722 C 160.783 153.087,161.128 174.984,152.591 179.131 C 145.183 182.730,138.212 177.905,136.838 168.230 C 134.767 153.635,143.238 142.250,152.097 147.722 M256.564 146.838 C 266.498 150.224,268.373 174.301,259.072 179.055 C 252.854 182.233,246.302 179.118,243.911 171.848 C 239.578 158.673,247.182 143.642,256.564 146.838 M125.709 183.752 C 133.396 187.510,137.676 198.705,134.550 206.880 C 129.601 219.822,107.946 219.254,103.334 206.061 C 98.755 192.964,113.822 177.941,125.709 183.752 M288.231 184.028 C 297.052 188.207,301.537 199.587,297.498 207.544 C 291.445 219.469,271.627 219.161,267.104 207.072 C 261.731 192.711,275.306 177.905,288.231 184.028 M186.203 184.928 C 187.029 185.578,187.211 186.128,187.421 188.607 C 188.898 206.083,211.498 206.737,214.032 189.377 C 214.982 182.875,220.202 183.223,219.564 189.747 C 217.174 214.200,181.919 212.616,181.825 188.051 C 181.813 184.905,184.100 183.274,186.203 184.928 M116.529 240.958 C 110.208 250.586,106.693 266.190,108.684 275.781 L 109.130 277.929 113.328 280.876 C 165.676 317.633,233.119 318.177,286.426 282.273 C 293.629 277.421,293.012 278.618,293.019 269.486 C 293.025 261.707,292.940 261.016,291.219 254.741 C 290.442 251.909,290.037 250.894,288.097 246.921 C 285.769 242.151,283.886 239.651,282.986 240.133 C 282.119 240.598,264.699 252.130,264.236 252.547 C 264.082 252.686,263.861 254.644,263.746 256.898 C 263.038 270.731,261.710 278.862,259.500 282.885 C 258.320 285.032,257.308 285.304,252.681 284.720 C 239.627 283.073,223.079 277.175,213.366 270.709 L 209.475 268.119 207.430 269.122 C 202.793 271.396,198.286 271.338,193.991 268.949 L 191.893 267.781 190.863 268.733 C 181.878 277.042,147.052 288.241,142.951 284.140 C 140.336 281.525,138.025 269.162,138.025 257.791 L 138.025 252.215 136.456 251.414 C 132.268 249.278,119.424 240.516,118.654 239.270 C 118.243 238.605,117.888 238.887,116.529 240.958 M137.634 330.417 C 153.106 345.222,169.635 354.848,187.097 359.222 C 209.281 364.778,234.318 356.077,260.020 333.879 C 268.562 326.501,268.905 325.882,262.742 328.962 C 217.650 351.499,184.110 351.449,137.830 328.777 L 133.920 326.862 137.634 330.417 " stroke="none" fill="#fbcc44" fill-rule="evenodd"></path><path id="path3" d="M120.039 41.569 C 120.039 41.636,120.611 42.208,121.310 42.840 L 122.581 43.988 121.432 42.717 C 120.362 41.533,120.039 41.267,120.039 41.569 M117.107 46.139 C 117.947 46.999,118.722 47.703,118.829 47.703 C 118.937 47.703,118.338 46.999,117.498 46.139 C 116.658 45.279,115.882 44.575,115.775 44.575 C 115.667 44.575,116.267 45.279,117.107 46.139 M147.116 146.506 C 147.493 146.604,148.109 146.604,148.485 146.506 C 148.861 146.408,148.553 146.327,147.801 146.327 C 147.048 146.327,146.740 146.408,147.116 146.506 M253.470 146.506 C 253.847 146.604,254.462 146.604,254.839 146.506 C 255.215 146.408,254.907 146.327,254.154 146.327 C 253.402 146.327,253.094 146.408,253.470 146.506 M242.914 161.290 C 242.918 162.151,242.998 162.456,243.092 161.970 C 243.185 161.484,243.182 160.780,243.084 160.406 C 242.986 160.032,242.910 160.430,242.914 161.290 M158.448 161.486 C 158.448 162.239,158.529 162.546,158.627 162.170 C 158.726 161.794,158.726 161.178,158.627 160.802 C 158.529 160.425,158.448 160.733,158.448 161.486 M136.598 163.832 C 136.598 165.660,136.665 166.408,136.748 165.494 C 136.830 164.580,136.830 163.084,136.748 162.170 C 136.665 161.256,136.598 162.004,136.598 163.832 M264.848 163.832 C 264.848 165.660,264.916 166.408,264.998 165.494 C 265.080 164.580,265.080 163.084,264.998 162.170 C 264.916 161.256,264.848 162.004,264.848 163.832 M158.470 165.982 C 158.473 167.058,158.548 167.451,158.638 166.857 C 158.728 166.262,158.726 165.383,158.633 164.902 C 158.540 164.421,158.467 164.907,158.470 165.982 M242.914 165.982 C 242.918 166.843,242.998 167.148,243.092 166.662 C 243.185 166.176,243.182 165.472,243.084 165.098 C 242.986 164.724,242.910 165.122,242.914 165.982 M146.731 180.144 C 147.325 180.234,148.205 180.231,148.686 180.138 C 149.167 180.046,148.680 179.972,147.605 179.975 C 146.530 179.978,146.136 180.054,146.731 180.144 M253.085 180.144 C 253.679 180.234,254.559 180.231,255.040 180.138 C 255.521 180.046,255.034 179.972,253.959 179.975 C 252.884 179.978,252.490 180.054,253.085 180.144 M114.956 183.311 C 104.411 187.571,99.340 200.237,104.717 208.884 C 110.124 217.580,124.765 218.955,131.595 211.409 C 142.386 199.484,129.362 177.490,114.956 183.311 M277.419 183.063 C 266.415 187.162,262.257 203.115,270.011 211.489 C 279.183 221.396,297.889 215.458,298.993 202.290 C 299.967 190.663,287.307 179.380,277.419 183.063 M181.939 188.270 C 181.942 189.560,182.015 190.041,182.102 189.338 C 182.189 188.635,182.187 187.580,182.098 186.992 C 182.008 186.404,181.937 186.979,181.939 188.270 M219.461 188.465 C 219.461 189.433,219.538 189.829,219.631 189.345 C 219.724 188.861,219.724 188.069,219.631 187.586 C 219.538 187.102,219.461 187.498,219.461 188.465 M190.029 197.190 C 190.029 197.257,190.601 197.829,191.300 198.461 L 192.571 199.609 191.422 198.338 C 190.352 197.154,190.029 196.888,190.029 197.190 M199.511 207.514 C 200.103 207.603,201.070 207.603,201.662 207.514 C 202.253 207.424,201.769 207.351,200.587 207.351 C 199.404 207.351,198.920 207.424,199.511 207.514 M145.361 229.407 C 145.848 229.500,146.552 229.497,146.925 229.399 C 147.299 229.301,146.901 229.224,146.041 229.229 C 145.181 229.233,144.875 229.313,145.361 229.407 M255.034 229.400 C 255.411 229.498,256.026 229.498,256.403 229.400 C 256.779 229.301,256.471 229.221,255.718 229.221 C 254.966 229.221,254.658 229.301,255.034 229.400 M263.689 252.763 C 263.570 253.073,263.541 253.645,263.626 254.034 C 263.721 254.475,263.855 254.264,263.982 253.470 C 264.195 252.139,264.057 251.805,263.689 252.763 M138.124 263.343 C 138.128 264.203,138.208 264.509,138.302 264.023 C 138.395 263.536,138.392 262.833,138.294 262.459 C 138.196 262.085,138.120 262.483,138.124 263.343 M263.238 263.148 C 263.238 263.900,263.319 264.208,263.417 263.832 C 263.515 263.456,263.515 262.840,263.417 262.463 C 263.319 262.087,263.238 262.395,263.238 263.148 M200.102 270.853 C 200.589 270.947,201.293 270.943,201.666 270.845 C 202.040 270.748,201.642 270.671,200.782 270.675 C 199.922 270.680,199.616 270.760,200.102 270.853 M144.966 284.936 C 145.665 285.023,146.808 285.023,147.507 284.936 C 148.206 284.849,147.634 284.778,146.237 284.778 C 144.839 284.778,144.267 284.849,144.966 284.936 M254.455 284.936 C 255.157 285.023,256.213 285.022,256.801 284.932 C 257.388 284.843,256.813 284.772,255.523 284.774 C 254.233 284.776,253.752 284.849,254.455 284.936 M191.300 308.784 C 191.891 308.874,192.859 308.874,193.451 308.784 C 194.042 308.695,193.558 308.622,192.375 308.622 C 191.193 308.622,190.709 308.695,191.300 308.784 M208.510 308.785 C 209.104 308.875,209.984 308.872,210.465 308.780 C 210.946 308.687,210.459 308.613,209.384 308.616 C 208.309 308.619,207.915 308.695,208.510 308.785 M195.210 345.930 C 195.802 346.020,196.769 346.020,197.361 345.930 C 197.952 345.841,197.468 345.767,196.285 345.767 C 195.103 345.767,194.619 345.841,195.210 345.930 M204.203 345.930 C 204.795 346.020,205.762 346.020,206.354 345.930 C 206.945 345.841,206.461 345.767,205.279 345.767 C 204.096 345.767,203.612 345.841,204.203 345.930 M198.744 361.189 C 199.988 361.267,201.923 361.266,203.045 361.187 C 204.166 361.108,203.148 361.045,200.782 361.046 C 198.416 361.046,197.499 361.111,198.744 361.189 " stroke="none" fill="#f29783" fill-rule="evenodd"></path></g></svg>